<svg width="70" height="70" fill="none" xmlns="http://www.w3.org/2000/svg"><rect width="70" height="70" rx="35" fill="#FFA42F"/><path d="M54.752 34.615L44.544 24.406a.87.87 0 00-1.197 0l-2.213 2.213a.846.846 0 000 1.197l7.397 7.397-7.397 7.398a.846.846 0 000 1.197l2.213 2.213a.847.847 0 001.197 0l10.209-10.208a.847.847 0 000-1.198zM28.866 42.61l-7.396-7.396 7.397-7.397a.846.846 0 000-1.197l-2.213-2.213a.847.847 0 00-1.197 0l-10.21 10.208a.847.847 0 000 1.197l10.21 10.209a.847.847 0 001.197 0l2.213-2.214a.845.845 0 000-1.196zm11.941-21.638a.847.847 0 00-.503-.408l-1.794-.529a.846.846 0 00-1.052.572l-8.33 28.208a.846.846 0 00.572 1.052l1.795.53a.845.845 0 001.051-.573l8.33-28.208a.845.845 0 00-.069-.644z" fill="#fff"/></svg>