<svg width="19" height="23" fill="none" xmlns="http://www.w3.org/2000/svg"><g opacity=".5" fill="#000"><path d="M18.156 20.272v-8.174a2.685 2.685 0 00-2.679-2.679h-.674V5.65A5.655 5.655 0 009.153 0C6.04 0 3.51 2.539 3.51 5.649v.65a.8.8 0 00.8.802c.441 0 .806-.36.806-.801v-.651A4.046 4.046 0 019.16 1.607a4.046 4.046 0 014.04 4.042v3.77H2.835A2.684 2.684 0 00.156 12.1v8.173a2.685 2.685 0 002.68 2.679h12.646a2.684 2.684 0 002.674-2.68zm-16.389 0v-8.174c0-.59.483-1.072 1.073-1.072h12.642c.59 0 1.072.482 1.072 1.072v8.174c0 .59-.482 1.072-1.072 1.072H2.835a1.075 1.075 0 01-1.068-1.072z"/><path d="M9.155 14.389a.805.805 0 00-.805.8v2.076c0 .444.36.8.805.8a.8.8 0 00.801-.8V15.19a.8.8 0 00-.8-.801z"/></g></svg>